<?xml version="1.0" standalone="no"?>
<!DOCTYPE svg PUBLIC "-//W3C//DTD SVG 20010904//EN"
 "http://www.w3.org/TR/2001/REC-SVG-20010904/DTD/svg10.dtd">
<svg version="1.0" xmlns="http://www.w3.org/2000/svg"
 width="700.000000pt" height="700.000000pt" viewBox="0 0 700.000000 700.000000"
 preserveAspectRatio="xMidYMid meet">
<metadata>
Created by potrace 1.14, written by Peter Selinger 2001-2017
</metadata>
<g transform="translate(0.000000,700.000000) scale(0.100000,-0.100000)"
fill="#000000" stroke="none">
<path d="M1026 5974 l-1026 -1026 0 -512 0 -511 165 0 165 0 1 30 c0 17 1 215
1 440 l0 410 929 930 929 930 451 0 c290 0 453 4 457 10 4 6 7 81 7 168 l0
157 -526 0 -527 0 -1026 -1026z"/>
<path d="M3900 6832 l0 -167 455 0 455 1 929 -928 928 -929 -1 -439 c-1 -384
1 -440 14 -441 8 -1 84 -2 167 -3 l153 -1 0 511 0 512 -1024 1026 -1024 1026
-526 0 -526 0 0 -168z"/>
<path d="M3370 6049 c-127 -45 -401 -141 -1110 -387 -168 -58 -306 -106 -308
-107 -3 -2 -30 -150 -38 -205 -2 -19 -6 -42 -9 -50 -2 -8 -6 -28 -9 -45 -3
-16 -12 -73 -21 -125 -9 -52 -18 -108 -21 -125 -2 -16 -7 -41 -9 -55 -3 -14
-7 -36 -10 -50 -12 -66 -17 -90 -31 -150 -25 -107 -83 -276 -139 -405 -157
-358 -194 -457 -190 -503 5 -61 16 -231 20 -302 1 -30 5 -91 9 -135 3 -44 9
-123 12 -175 3 -52 8 -115 9 -140 2 -25 4 -71 6 -104 2 -50 8 -66 43 -117 23
-32 58 -82 78 -111 41 -59 45 -79 53 -258 8 -178 16 -342 31 -600 3 -63 7
-140 9 -170 2 -30 3 -75 4 -100 1 -43 4 -48 53 -85 29 -22 60 -46 68 -52 8 -7
69 -54 135 -104 66 -51 158 -122 205 -158 47 -36 182 -140 300 -230 118 -91
224 -174 234 -183 11 -10 36 -18 55 -19 20 0 351 -1 736 -2 l700 -2 105 79
c58 44 128 97 155 119 28 21 64 49 80 62 41 31 231 177 479 368 113 87 206
164 207 170 2 25 6 97 13 232 7 139 10 199 21 410 5 105 9 168 20 372 5 91 6
94 49 155 25 35 49 68 54 74 49 57 60 90 66 194 4 58 9 132 11 165 2 33 7 101
10 150 3 50 8 117 10 150 6 72 12 167 20 298 l7 97 -116 273 c-168 398 -196
476 -232 652 -2 11 -6 31 -9 45 -6 32 -48 268 -59 335 -18 110 -57 333 -61
346 -3 9 -62 35 -158 68 -201 70 -338 118 -892 311 -60 21 -200 70 -310 108
l-200 69 -135 -48z m1779 -1707 c13 -31 37 -84 51 -117 87 -191 160 -366 157
-373 -3 -4 -8 -54 -11 -112 -4 -58 -9 -121 -10 -140 -7 -65 -16 -175 -21 -255
-6 -77 -15 -159 -18 -161 -1 0 -217 -134 -481 -298 -263 -163 -479 -296 -481
-294 -2 2 -78 106 -169 233 -91 126 -174 233 -182 238 -16 9 -391 141 -451
158 -27 8 -62 -1 -250 -66 -120 -42 -229 -81 -243 -86 -16 -6 -87 -96 -194
-244 -100 -139 -173 -232 -180 -228 -6 3 -65 40 -131 80 -66 41 -129 80 -140
86 -11 7 -44 28 -75 47 -31 19 -64 40 -75 47 -11 6 -136 84 -278 173 -230 144
-257 164 -258 188 0 15 -2 34 -4 42 -1 9 -6 61 -10 115 -10 132 -12 169 -19
240 -3 33 -8 98 -12 145 -3 47 -8 88 -10 92 -8 13 230 538 244 538 12 0 910
-344 967 -370 11 -6 101 -41 200 -78 99 -38 240 -93 314 -121 l134 -52 81 31
c45 18 113 44 151 60 39 15 171 67 295 115 124 47 234 90 245 95 11 5 45 19
75 30 30 11 64 25 75 29 11 5 43 17 70 27 28 10 61 24 75 31 14 7 31 13 38 13
7 0 20 5 30 10 9 6 116 48 236 95 121 47 221 87 224 90 11 11 18 2 41 -53z
m-2584 -2041 c0 -46 -3 -85 -7 -87 -4 -3 -44 19 -90 49 -89 58 -347 220 -400
251 -18 11 -70 44 -115 73 l-83 53 0 89 0 89 348 -217 347 -218 0 -82z m2580
452 c-2 -32 -4 -72 -4 -88 -1 -29 -18 -41 -296 -215 -353 -222 -386 -242 -391
-237 -2 2 -5 40 -6 85 l-3 82 340 214 c187 118 345 215 352 215 8 1 11 -17 8
-56z m-3195 -314 c14 -9 156 -99 317 -198 l291 -182 -2 -80 c-2 -44 -5 -82 -8
-85 -3 -2 -33 12 -66 33 -34 21 -112 69 -174 107 -62 38 -127 80 -144 93 -17
13 -34 23 -37 23 -3 0 -33 18 -66 40 -33 22 -65 40 -71 40 -5 0 -10 5 -10 10
0 6 -5 10 -10 10 -11 0 -71 39 -81 53 -3 4 -6 46 -7 93 l-2 85 22 -12 c13 -7
34 -20 48 -30z m3184 4 c-1 -15 -3 -54 -3 -85 l-1 -56 -252 -159 c-360 -227
-408 -256 -413 -252 -2 2 -5 41 -7 86 l-3 81 335 210 c184 115 337 208 340
206 3 -1 5 -15 4 -31z m-2906 -498 l319 -199 -4 -85 c-2 -47 -5 -86 -6 -87 -1
-1 -56 32 -123 75 -66 42 -129 81 -140 88 -59 36 -342 214 -358 226 -16 12
-20 30 -23 102 -3 54 -1 86 5 84 6 -2 154 -94 330 -204z m2896 178 c-2 -16 -4
-55 -5 -89 l-2 -60 -313 -197 c-172 -108 -318 -197 -324 -197 -6 0 -10 33 -10
83 l0 84 323 201 c177 111 325 202 328 202 3 0 5 -12 3 -27z m-2884 -508 c157
-98 287 -179 289 -182 5 -4 2 -165 -3 -170 -3 -3 -594 363 -610 377 -10 10
-18 158 -10 172 3 5 16 3 27 -5 12 -7 150 -94 307 -192z m2869 117 l-1 -87
-272 -169 c-149 -93 -287 -179 -307 -192 -19 -13 -37 -24 -40 -24 -3 0 -6 38
-7 85 l-2 85 83 53 c45 29 89 56 97 60 8 4 110 67 225 141 116 74 214 135 218
135 4 1 7 -38 6 -87z"/>
<path d="M4542 4016 c-10 -15 -10 -216 0 -217 55 -8 53 -12 53 111 0 113 0
115 -23 116 -12 1 -26 -4 -30 -10z"/>
<path d="M4280 3825 c-116 -116 -120 -122 -120 -163 0 -43 0 -43 33 -40 27 3
32 7 33 30 1 22 25 52 103 128 57 55 108 100 114 99 35 -4 44 2 41 27 -3 34
-9 39 -49 39 -31 1 -47 -12 -155 -120z"/>
<path d="M4655 3941 c-3 -2 -5 -17 -5 -33 0 -24 4 -28 30 -28 24 0 49 -18 130
-97 86 -84 100 -102 100 -130 0 -31 2 -33 35 -33 34 0 34 0 33 44 0 42 -5 48
-119 162 -111 110 -121 118 -159 119 -22 1 -43 -1 -45 -4z"/>
<path d="M4078 3535 l4 -34 112 0 111 0 2 34 2 35 -118 0 -117 0 4 -35z"/>
<path d="M4830 3535 l0 -35 114 1 115 0 -2 35 -2 34 -112 0 -113 0 0 -35z"/>
<path d="M4160 3407 c0 -42 3 -46 123 -163 116 -114 124 -120 162 -119 37 1
40 2 41 33 2 32 -4 36 -39 32 -11 -1 -59 40 -122 104 -87 89 -103 109 -99 131
4 23 1 25 -31 25 -35 0 -35 0 -35 -43z"/>
<path d="M4917 3443 c-4 -3 -7 -17 -7 -29 0 -16 -32 -55 -101 -124 -83 -83
-104 -99 -125 -96 -13 3 -24 2 -25 -2 0 -4 -2 -19 -4 -34 -3 -23 0 -28 18 -29
63 -4 72 1 189 118 114 114 118 119 118 160 0 41 -2 43 -28 43 -16 0 -32 -3
-35 -7z"/>
<path d="M4544 3272 c-6 -4 -10 -50 -10 -117 1 -119 -2 -112 56 -106 7 1 10
41 8 113 -3 102 -5 111 -23 114 -11 2 -25 0 -31 -4z"/>
<path d="M10 3132 c-6 -2 -10 -193 -10 -543 l0 -540 1027 -1025 1026 -1024
526 2 526 3 0 163 1 162 -61 1 c-33 0 -239 0 -458 1 l-397 0 -928 928 -929
929 0 465 c0 256 -3 469 -6 473 -7 6 -298 11 -317 5z"/>
<path d="M6677 3128 c-7 -4 -10 -150 -10 -473 l0 -466 -928 -927 -928 -928
-453 0 -453 0 -3 -167 -2 -167 525 0 526 0 1025 1024 1024 1025 0 543 0 543
-156 0 c-86 0 -161 -3 -167 -7z"/>
</g>
</svg>
