<?xml version="1.0" encoding="UTF-8"?>
<!DOCTYPE svg PUBLIC "-//W3C//DTD SVG 1.1//EN" "http://www.w3.org/Graphics/SVG/1.1/DTD/svg11.dtd">
<!-- Creator: CorelDRAW 2018 (64-Bit) -->
<svg xmlns="http://www.w3.org/2000/svg" xml:space="preserve" width="5.18704in" height="5.18704in" version="1.1" style="shape-rendering:geometricPrecision; text-rendering:geometricPrecision; image-rendering:optimizeQuality; fill-rule:evenodd; clip-rule:evenodd"
viewBox="0 0 377.61 377.61"
 xmlns:xlink="http://www.w3.org/1999/xlink">
 <defs>
  <style type="text/css">
   <![CDATA[
    .fil1 {fill:#E60D2E}
    .fil0 {fill:#E60D2E;fill-rule:nonzero}
   ]]>
  </style>
 </defs>
 <g id="Layer_x0020_1">
  <metadata id="CorelCorpID_0Corel-Layer"/>
  <g id="_2187025810304">
   <path class="fil0" d="M-0 165.85l0 -55.21 110.64 -110.64 56.87 0 0 18.05 -49.47 0 -100.07 100.07 0 47.73 -17.97 0zm210.33 -165.85l56.72 0 110.56 110.64 0 55.21 -17.97 0 0 -47.73 -100.07 -100.07 -49.24 0 0 -18.05zm167.28 208.59l0 58.45 -110.56 110.56 -56.72 0 0 -17.97 49.24 0 100.07 -100.07 0 -50.98 17.97 0zm-210.1 169.02l-56.87 0 -110.64 -110.56 0 -58.45 17.97 0 0 50.98 100.07 100.07 49.47 0 0 17.97z"/>
   <path class="fil1" d="M95.61 127.86l0.08 -0.15 0 -0.15c3.1,-10.04 4.08,-19.33 9.44,-49.54l84.13 -29.3 83.91 29.3c5.36,30.28 6.34,39.5 9.44,49.54l0 0.15 0.08 0.15c2.64,8.38 6.8,17.52 16.24,39.88l-3.47 52.34 -8.53 12.01 -3.1 60.12 -55.06 42.37 -79.15 0 -55.13 -42.37 -3.1 -60.12 -8.53 -12.01 -3.47 -52.41c9.52,-22.35 13.59,-31.42 16.24,-39.8zm180.2 151.2l-34.21 21.37 0.3 8.01 0 1.43 33.53 -20.92 0.38 -9.89zm0.6 -17.75l-35.42 22.13 0.3 9.06 0.23 0.3 34.51 -21.6 0.38 -9.89zm0.6 -17.67l-36.63 22.88 0.3 9.14 0.15 0.3 35.87 -22.43 0.3 -9.89zm0.53 -18.05l-37.84 23.64 0.38 9.52 37.23 -23.34 0.38 -9.52 -0.15 -0.3zm-174.99 53.47l34.21 21.37 -0.3 8.01 0 1.43 -33.53 -20.92 -0.38 -9.89zm-0.6 -17.75l35.42 22.13 -0.3 9.06 -0.23 0.3 -34.51 -21.6 -0.38 -9.89zm-0.6 -17.67l36.63 22.88 -0.3 9.14 -0.15 0.3 -35.87 -22.43 -0.3 -9.89zm-0.53 -18.05l37.84 23.64 -0.38 9.52 -37.23 -23.34 -0.38 -9.52 0.15 -0.3zm88.59 -51.28l87 -33.98c4.15,9.52 8.38,18.96 12.54,28.47 -0.98,12.23 -1.89,24.47 -2.95,36.7 -17.29,10.88 -34.74,21.67 -52.04,32.47l-18.5 -25.53 -26.36 -9.14 -26.28 9.14 -18.5 25.53c-17.29,-10.88 -34.74,-21.6 -52.03,-32.47 -1.06,-12.23 -2.04,-24.47 -3.02,-36.7 4.23,-9.52 8.38,-19.03 12.61,-28.47l87.53 33.98z"/>
   <polygon class="fil0" points="248.17,160.48 248.17,172.8 244.62,172.8 244.62,160.48 "/>
   <polygon class="fil0" points="248.17,200.96 248.17,213.28 244.62,213.28 244.62,200.96 "/>
   <polygon class="fil0" points="220,185.11 232.31,185.11 232.31,188.73 220,188.73 "/>
   <polygon class="fil0" points="260.48,185.11 272.79,185.11 272.79,188.73 260.48,188.73 "/>
   <polygon class="fil0" points="224.38,182.46 224.38,177.78 237.29,164.87 241.82,164.87 241.82,168.49 238.8,168.49 227.93,179.29 227.93,182.46 "/>
   <polygon class="fil0" points="241.97,208.97 237.29,208.97 224.38,196.06 224.38,191.45 227.93,191.45 227.93,194.55 238.73,205.35 241.97,205.35 "/>
   <polygon class="fil0" points="268.63,191.37 268.63,196.06 255.72,208.97 251.11,208.97 251.11,205.35 254.21,205.35 265.01,194.55 265.01,191.37 "/>
   <polygon class="fil0" points="250.96,164.79 255.64,164.79 268.56,177.7 268.56,182.24 265.01,182.24 265.01,179.14 254.13,168.34 250.96,168.34 "/>
  </g>
 </g>
</svg>
